<svg xmlns="http://www.w3.org/2000/svg" width="90" height="98" viewBox="0 0 90 98">
  <g fill="#5A78FF" fill-rule="evenodd" transform="translate(-3 -2)">
    <path d="M46.5037074,66.9460335 C54.9920822,64.3641222 62.173389,63.0659036 68.0476279,63.0513775 C77.7593847,63.0273618 85.9018545,64.9514124 92.4750371,68.8235294 L92.4750371,40.6650655 C85.8684819,37.2507022 78.4037604,35.4280999 70.0808725,35.1972584 C61.7579846,34.9664169 53.8989295,36.6581358 46.5037074,40.2724148 L46.5037074,66.9460335 Z"/>
    <path d="M32.7123085,36.2878153 L43.1885343,61.1764706 L43.1885343,37.3239791 C48.7081829,34.373967 54.5515875,32.4834107 60.7187483,31.6523102 C66.885909,30.8212098 73.8957907,30.9552063 81.7483935,32.0542999 L76.0506399,18.4671194 C67.7961299,17.9350885 59.9327097,19.2623673 52.4603794,22.4489558 C44.9880491,25.6355444 38.4053588,30.2484976 32.7123085,36.2878153 Z"/>
    <path fill-rule="nonzero" d="M64.8922392,26.0771166 C64.8922392,23.6755746 64.8922392,20.0732615 64.8922392,15.2701775 C64.8922392,10.2153745 60.8115464,6.11764706 55.7777568,6.11764706 L24.9706367,6.11764706 C19.936847,6.11764706 15.8561542,10.2153745 15.8561542,15.2701775 L15.8561542,87.2004108 C15.8561542,92.2552137 19.936847,96.3529412 24.9706367,96.3529412 L55.7777568,96.3529412 C60.8115464,96.3529412 64.8922392,92.2552137 64.8922392,87.2004108 C64.8922392,82.6450563 64.8922392,79.6725218 64.8922392,78.282807 C63.4942465,77.6089759 62.4668795,77.126939 61.8101383,76.8366965 C61.1165858,76.5301855 60.1185123,76.117092 58.8159176,75.597416 C58.8159176,77.3880983 58.8159176,81.2557632 58.8159176,87.2004108 C58.8159176,88.8853451 57.4556867,90.2512542 55.7777568,90.2512542 L24.9706367,90.2512542 C23.2927068,90.2512542 21.9324759,88.8853451 21.9324759,87.2004108 L21.9324759,15.2701775 C21.9324759,13.5852432 23.2927068,12.219334 24.9706367,12.219334 L55.7777568,12.219334 C57.4556867,12.219334 58.8159176,13.5852432 58.8159176,15.2701775 L58.8159176,26.1934885 C60.2448009,26.1035136 61.3317357,26.0621805 62.0767218,26.0694893 C62.8217079,26.076798 63.7602137,26.0793405 64.8922392,26.0771166 Z" transform="rotate(-22.4 40.374 51.235)"/>
  </g>
</svg>
